{"glyphs":{":":{"x_min":0,"x_max":234,"ha":234,"o":"m 88 449 l 205 449 l 189 310 l 72 310 z m 53 139 l 170 139 l 153 0 l 36 0 z"},"$":{"x_min":0,"x_max":476,"ha":476,"o":"m 430 167 q 430 90 376 44 q 323 -1 236 -7 l 230 -65 l 176 -65 l 182 -7 q 131 -3 87 12 q 43 26 18 45 l 47 170 l 134 163 l 124 98 q 152 83 191 78 l 207 233 q 144 246 100 273 q 56 300 56 364 q 56 447 113 484 q 170 522 238 528 l 245 593 l 299 593 l 292 528 q 380 521 436 480 l 434 357 l 345 350 l 341 425 q 314 441 283 444 l 269 316 q 302 309 340 296 q 377 282 404 252 q 430 222 430 167 z m 170 383 q 170 360 183 348 q 196 336 217 328 l 229 442 q 204 437 187 422 q 170 408 170 383 z m 316 150 q 316 178 300 194 q 284 210 259 219 l 245 79 q 316 89 316 150 z"},"?":{"x_min":0,"x_max":458,"ha":458,"o":"m 138 458 l 55 466 l 86 607 q 134 633 184 646 q 234 659 275 659 q 354 659 406 625 q 457 591 457 527 q 457 473 424 440 q 391 406 348 384 q 306 362 273 342 q 240 321 240 293 q 240 264 281 264 l 274 196 q 195 188 160 210 q 125 232 125 278 q 125 328 157 356 q 189 383 230 402 q 272 422 304 444 q 336 466 336 504 q 336 562 254 562 q 200 562 161 538 z m 124 0 l 137 127 l 262 127 l 249 0 z"},"<":{"x_min":0,"x_max":390,"ha":390,"o":"m 310 14 l 24 262 l 28 296 l 366 549 l 355 447 l 135 281 l 321 116 z"},"'":{"x_min":0,"x_max":198,"ha":198,"o":"m 153 377 l 64 377 l 85 650 l 190 650 z"},"=":{"x_min":0,"x_max":545,"ha":545,"o":"m 56 354 l 65 428 l 513 428 l 504 354 z m 33 132 l 41 207 l 489 207 l 481 132 z"},"a":{"x_min":0,"x_max":515,"ha":515,"o":"m 478 449 q 467 411 458 373 q 448 335 444 297 l 417 82 l 478 82 l 471 22 l 445 0 l 321 0 l 319 91 q 298 50 262 20 q 226 -10 170 -10 q 96 -10 58 44 q 21 98 21 181 q 21 240 42 304 q 63 369 108 414 q 154 458 229 458 q 329 458 358 374 q 362 393 367 412 q 372 430 379 449 z m 244 375 q 182 375 157 316 q 132 258 132 194 q 132 72 209 72 q 255 72 287 114 q 319 155 329 200 l 337 261 q 339 314 312 344 q 284 375 244 375 z"},"L":{"x_min":0,"x_max":532,"ha":532,"o":"m 477 0 l 9 0 l 19 95 l 92 95 l 140 555 l 67 555 l 77 650 l 354 650 l 344 555 l 247 555 l 199 95 l 396 95 l 429 230 l 519 222 z"},"3":{"x_min":0,"x_max":516,"ha":516,"o":"m 148 341 l 65 350 l 99 487 q 146 509 196 520 q 247 531 286 531 q 364 531 416 496 q 468 460 468 386 q 468 335 440 290 q 411 245 337 219 l 336 215 q 404 202 432 162 q 460 123 460 68 q 460 -32 392 -86 q 324 -141 218 -141 q 118 -141 66 -96 q 13 -50 15 24 l 105 52 q 107 15 134 -16 q 160 -46 220 -46 q 290 -46 316 -6 q 343 34 343 74 q 343 165 191 172 l 198 246 q 266 248 298 270 q 331 292 340 318 q 350 344 350 359 q 350 436 259 436 q 241 436 216 432 q 191 427 173 418 z"},";":{"x_min":0,"x_max":240,"ha":240,"o":"m 72 307 l 86 446 l 214 446 l 200 307 z m -22 -92 l 59 136 l 161 136 l 81 -92 z"},"J":{"x_min":0,"x_max":456,"ha":456,"o":"m 179 650 l 464 650 l 454 555 l 392 555 l 352 178 q 342 84 288 37 q 235 -10 153 -10 q 80 -10 42 24 q 5 57 -10 104 l 71 163 q 84 120 106 106 q 128 93 154 93 q 198 93 220 116 q 241 140 245 177 l 285 555 l 169 555 z"},"V":{"x_min":0,"x_max":648,"ha":648,"o":"m 673 555 l 616 555 l 334 0 l 257 0 l 92 555 l 31 555 l 41 650 l 288 650 l 278 555 l 209 555 l 317 170 l 322 170 l 507 555 l 437 555 l 447 650 l 684 650 z"},"\"":{"x_min":0,"x_max":374,"ha":374,"o":"m 153 377 l 64 377 l 85 650 l 190 650 z m 329 377 l 240 377 l 261 650 l 366 650 z"},"7":{"x_min":0,"x_max":477,"ha":477,"o":"m 53 521 l 480 521 l 488 466 l 195 -130 l 85 -130 l 366 427 l 139 427 l 128 317 l 31 317 z"},"S":{"x_min":0,"x_max":532,"ha":532,"o":"m 488 200 q 488 99 422 44 q 355 -10 236 -10 q 171 -10 110 6 q 50 22 18 52 l 51 201 l 137 192 l 128 112 q 158 95 186 90 q 214 86 233 86 q 295 86 333 108 q 371 131 371 191 q 371 248 337 264 q 303 280 247 292 q 182 306 124 338 q 67 370 67 463 q 67 570 143 615 q 219 660 306 660 q 367 660 420 642 q 474 624 502 595 l 493 458 l 405 450 l 404 534 q 379 550 352 556 q 326 562 302 562 q 250 562 216 541 q 182 520 182 476 q 182 431 217 414 q 252 398 298 387 q 343 377 386 360 q 430 344 459 307 q 488 270 488 200 z"},"}":{"x_min":0,"x_max":288,"ha":288,"o":"m 173 271 q 118 278 95 303 q 72 328 72 355 q 72 389 100 440 q 129 490 158 544 q 186 599 186 645 q 186 699 130 699 l 67 699 l 75 772 l 138 772 q 212 772 243 736 q 274 700 274 653 q 274 598 246 539 q 217 480 188 430 q 160 380 160 350 q 160 316 194 306 q 228 296 250 296 l 269 296 l 263 246 l 245 246 q 222 246 182 234 q 142 223 142 182 q 142 142 169 66 q 196 -9 196 -80 q 196 -144 158 -189 q 120 -234 33 -234 l -30 -234 l -23 -160 l 40 -160 q 110 -160 110 -83 q 110 -42 96 6 q 82 54 68 99 q 53 144 53 174 q 53 205 80 234 q 107 263 173 271 z"},"Z":{"x_min":0,"x_max":565,"ha":565,"o":"m 495 0 l 2 0 l 1 59 l 392 553 l 392 555 l 181 555 l 148 442 l 56 451 l 99 650 l 551 650 l 553 597 l 161 97 l 160 95 l 412 95 l 448 222 l 540 212 z"},"x":{"x_min":0,"x_max":497,"ha":497,"o":"m 472 24 l 444 0 l 229 0 l 236 58 l 263 82 l 299 82 l 223 186 q 158 144 140 97 q 122 50 135 0 l 19 0 q -4 70 52 122 q 109 173 186 225 l 74 366 l 17 366 l 25 425 l 52 449 l 263 449 l 255 390 l 228 366 l 191 366 l 258 274 q 316 319 334 362 q 353 405 341 449 l 457 449 q 473 405 448 366 q 422 328 379 295 q 336 262 298 235 l 416 82 l 479 82 z"},")":{"x_min":0,"x_max":281,"ha":281,"o":"m 45 -183 l -50 -183 q 56 -62 110 63 q 164 188 164 323 q 164 423 134 526 q 105 630 45 718 l 142 718 q 200 626 226 525 q 253 424 253 327 q 253 194 203 68 q 153 -58 45 -183 z"},"&":{"x_min":0,"x_max":699,"ha":699,"o":"m 436 376 l 692 376 l 682 282 l 605 282 q 561 194 473 115 q 519 92 565 92 q 600 92 635 108 l 649 17 q 598 -10 538 -10 q 456 -10 375 44 q 334 19 290 4 q 246 -10 202 -10 q 131 -10 75 30 q 19 71 19 149 q 19 220 66 257 q 112 294 165 320 q 140 389 140 449 q 140 533 190 596 q 241 660 343 660 q 416 660 460 624 q 504 587 504 523 q 504 449 442 406 q 381 364 285 318 q 332 220 413 154 q 465 205 491 282 l 426 282 z m 395 518 q 395 539 382 558 q 370 577 335 577 q 288 577 268 542 q 247 508 247 464 q 247 421 263 370 q 395 444 395 518 z m 187 267 q 125 225 125 165 q 125 118 156 100 q 188 81 235 81 q 274 81 313 93 q 233 168 187 267 z"},"_":{"x_min":0,"x_max":505,"ha":505,"o":"m 5 -70 l 429 -70 l 422 -142 l -2 -142 z"},"v":{"x_min":0,"x_max":477,"ha":477,"o":"m 238 390 l 210 366 l 169 366 l 245 123 l 251 123 q 304 190 330 244 q 355 298 355 356 q 355 377 350 400 q 346 424 336 449 l 452 449 q 464 390 452 324 q 441 259 390 188 q 364 151 317 97 q 270 43 226 0 l 178 0 l 60 366 l 9 366 l 17 425 l 44 449 l 245 449 z"},"O":{"x_min":0,"x_max":695,"ha":695,"o":"m 386 660 q 520 660 596 572 q 673 484 673 360 q 673 260 627 176 q 581 92 500 41 q 420 -10 316 -10 q 179 -10 106 78 q 32 167 32 290 q 32 392 78 476 q 125 560 206 610 q 286 660 386 660 z m 332 88 q 442 88 500 168 q 557 249 557 352 q 557 449 508 506 q 460 562 374 562 q 270 562 209 484 q 148 407 148 300 q 148 218 191 153 q 234 88 332 88 z"},"(":{"x_min":0,"x_max":281,"ha":281,"o":"m 234 718 l 329 718 q 223 597 169 472 q 115 347 115 212 q 115 112 144 8 q 174 -95 234 -183 l 137 -183 q 79 -91 52 10 q 26 111 26 208 q 26 341 76 468 q 126 594 234 718 z"},"C":{"x_min":0,"x_max":622,"ha":622,"o":"m 552 62 q 515 29 449 10 q 383 -10 319 -10 q 182 -10 108 75 q 34 160 34 287 q 34 376 72 462 q 109 547 188 604 q 266 660 388 660 q 468 660 522 636 q 577 613 606 583 l 608 442 l 517 433 l 511 523 q 457 562 376 562 q 274 562 211 493 q 148 424 148 299 q 148 88 339 88 q 414 88 467 116 l 493 213 l 581 204 z"},"W":{"x_min":0,"x_max":935,"ha":935,"o":"m 955 555 l 903 555 l 674 0 l 596 0 l 490 458 l 486 458 l 289 0 l 209 0 l 86 555 l 33 555 l 42 650 l 279 650 l 269 555 l 199 555 l 269 183 l 275 183 l 439 555 l 383 555 l 393 650 l 631 650 l 620 555 l 568 555 l 653 178 l 659 178 l 795 555 l 720 555 l 730 650 l 964 650 z"},"A":{"x_min":0,"x_max":650,"ha":650,"o":"m -10 95 l 48 95 l 286 555 l 194 555 l 204 650 l 404 650 l 573 95 l 633 95 l 623 0 l 384 0 l 394 95 l 457 95 l 435 184 l 200 184 l 157 95 l 228 95 l 218 0 l -19 0 z m 350 491 l 240 265 l 414 265 l 356 491 z"},"f":{"x_min":0,"x_max":311,"ha":311,"o":"m 293 698 q 316 698 350 691 q 384 684 413 661 l 419 546 l 340 537 l 328 610 q 306 617 285 617 q 228 617 219 538 l 208 449 l 323 449 l 316 394 l 286 366 l 198 366 l 148 -37 q 139 -108 104 -165 q 70 -222 -19 -222 q -78 -222 -117 -189 q -156 -156 -155 -82 l -74 -58 q -75 -110 -58 -125 q -40 -140 -23 -140 q 11 -140 26 -107 q 40 -74 45 -35 l 94 366 l 14 366 l 19 422 l 49 449 l 104 449 l 115 532 q 125 612 176 655 q 228 698 293 698 z"},"Q":{"x_min":0,"x_max":705,"ha":705,"o":"m 387 660 q 521 660 598 572 q 674 484 674 360 q 674 283 646 214 q 618 146 568 95 l 651 5 l 579 -61 l 491 35 q 413 -10 317 -10 q 180 -10 106 78 q 33 167 33 290 q 33 392 80 476 q 126 560 206 610 q 286 660 387 660 z m 330 213 l 402 279 l 501 169 q 558 242 558 352 q 558 449 509 506 q 460 562 375 562 q 272 562 210 484 q 149 407 149 300 q 149 218 192 153 q 235 88 333 88 q 383 88 425 108 z"},"w":{"x_min":0,"x_max":726,"ha":726,"o":"m 502 123 l 507 123 q 559 190 581 244 q 603 297 603 354 q 603 403 585 449 l 701 449 q 713 385 700 319 q 687 253 638 183 q 613 147 568 94 q 524 40 482 0 l 436 0 l 367 288 l 362 288 l 211 0 l 155 0 l 57 366 l 10 366 l 18 425 l 45 449 l 243 449 l 236 390 l 208 366 l 164 366 l 210 150 l 215 150 l 364 449 l 427 449 z"},"-":{"x_min":0,"x_max":325,"ha":325,"o":"m 47 278 l 279 278 l 270 188 l 38 188 z"},"E":{"x_min":0,"x_max":570,"ha":570,"o":"m 491 0 l 10 0 l 19 95 l 93 95 l 141 555 l 68 555 l 78 650 l 554 650 l 554 462 l 462 454 l 453 555 l 247 555 l 228 375 l 511 375 l 501 280 l 218 280 l 199 95 l 410 95 l 440 196 l 530 188 z"},"s":{"x_min":0,"x_max":432,"ha":432,"o":"m 192 72 q 277 72 277 128 q 277 162 242 173 q 208 184 162 197 q 118 209 82 234 q 45 258 45 317 q 45 392 102 425 q 158 458 226 458 q 266 458 312 448 q 358 438 392 417 l 391 306 l 308 296 l 306 358 q 265 375 229 375 q 199 375 176 362 q 152 350 152 324 q 152 300 176 290 q 201 279 247 268 q 292 256 338 231 q 385 206 385 136 q 385 63 331 26 q 277 -10 199 -10 q 155 -10 100 1 q 44 12 8 34 l 36 150 l 118 142 l 111 86 q 129 78 152 75 q 176 72 192 72 z"},">":{"x_min":0,"x_max":392,"ha":392,"o":"m 364 262 l 26 14 l 37 116 l 258 281 l 71 447 l 82 549 l 368 296 z"},"l":{"x_min":0,"x_max":250,"ha":250,"o":"m 49 664 l 76 688 l 222 688 l 148 82 l 212 82 l 205 22 l 178 0 l 35 0 l 109 606 l 41 606 z"},"8":{"x_min":0,"x_max":528,"ha":528,"o":"m 228 -10 q 136 -10 79 29 q 22 68 22 148 q 22 222 69 260 q 116 298 177 324 q 134 350 103 385 q 72 420 72 476 q 72 556 138 608 q 204 660 305 660 q 390 660 444 620 q 498 580 498 509 q 498 446 457 411 q 416 376 361 352 q 410 326 448 287 q 485 248 485 184 q 485 94 412 42 q 338 -10 228 -10 z m 189 491 q 189 452 224 428 q 260 404 306 381 q 340 400 364 425 q 387 450 387 490 q 387 535 360 552 q 334 569 296 569 q 249 569 219 548 q 189 526 189 491 z m 245 81 q 299 81 334 106 q 368 131 368 171 q 368 216 326 243 q 283 270 230 295 q 191 275 162 248 q 134 220 134 175 q 134 81 245 81 z"},"\\":{"x_min":0,"x_max":470,"ha":470,"o":"m 41 688 l 140 688 l 421 0 l 323 0 z"},"e":{"x_min":0,"x_max":441,"ha":441,"o":"m 222 72 q 271 72 292 99 q 312 126 321 152 l 404 135 q 393 77 342 34 q 291 -10 206 -10 q 125 -10 72 38 q 20 87 20 189 q 20 299 84 378 q 147 458 257 458 q 324 458 368 426 q 413 393 413 339 q 413 289 378 254 q 342 219 253 200 q 227 194 196 190 q 166 185 132 181 q 134 129 154 100 q 174 72 222 72 z m 202 256 q 268 270 286 290 q 305 310 305 332 q 305 360 288 372 q 270 383 244 383 q 192 383 167 340 q 142 298 135 245 q 154 247 171 250 q 188 254 202 256 z"},"b":{"x_min":0,"x_max":510,"ha":510,"o":"m 47 664 l 74 688 l 216 688 l 176 365 q 198 403 232 430 q 266 458 319 458 q 398 458 438 403 q 478 348 478 268 q 478 206 456 142 q 434 77 387 34 q 340 -10 264 -10 q 165 -10 135 70 q 131 53 126 35 q 122 17 117 0 l 14 0 q 24 33 33 68 q 42 102 46 135 l 103 606 l 40 606 z m 252 72 q 311 72 339 134 q 367 195 367 254 q 367 307 347 341 q 327 375 284 375 q 230 375 199 330 q 168 284 161 235 l 160 229 l 154 183 q 153 134 180 103 q 206 72 252 72 z"},"%":{"x_min":0,"x_max":705,"ha":705,"o":"m 175 241 q 110 241 76 276 q 42 311 42 369 q 42 439 88 485 q 133 531 209 531 q 274 531 308 496 q 341 460 341 403 q 341 335 297 288 q 253 241 175 241 z m 628 521 l 400 262 l 178 0 l 69 0 l 327 286 l 519 521 z m 181 311 q 256 311 256 397 q 256 460 201 460 q 170 460 148 440 q 126 420 126 375 q 126 311 181 311 z m 496 -10 q 432 -10 397 24 q 362 59 362 118 q 362 188 408 234 q 455 280 530 280 q 594 280 628 244 q 662 209 662 151 q 662 84 618 37 q 575 -10 496 -10 z m 503 60 q 577 60 577 146 q 577 210 522 210 q 490 210 469 190 q 448 169 448 125 q 448 60 503 60 z"},"m":{"x_min":0,"x_max":797,"ha":797,"o":"m 59 449 l 188 449 l 190 362 q 213 405 248 432 q 284 458 336 458 q 386 458 418 433 q 451 408 458 357 q 481 402 518 430 q 554 458 607 458 q 668 458 704 419 q 740 380 730 297 l 704 82 l 768 82 l 761 22 l 734 0 l 592 0 l 623 258 q 631 322 614 348 q 596 375 556 375 q 508 375 485 344 q 462 313 454 269 l 422 0 l 320 0 l 352 258 q 360 322 342 348 q 325 375 285 375 q 234 375 211 340 q 188 306 182 257 l 181 259 l 150 0 l 48 0 l 93 366 l 24 366 l 31 425 z"},"#":{"x_min":0,"x_max":569,"ha":569,"o":"m 520 521 l 488 413 l 550 413 l 541 331 l 464 331 l 423 192 l 497 192 l 489 110 l 399 110 l 367 0 l 276 0 l 308 110 l 164 110 l 132 0 l 42 0 l 74 110 l 16 110 l 24 192 l 98 192 l 139 331 l 69 331 l 78 413 l 163 413 l 195 521 l 285 521 l 253 413 l 397 413 l 429 521 z m 188 192 l 332 192 l 373 331 l 229 331 z"},",":{"x_min":0,"x_max":213,"ha":213,"o":"m -27 -92 l 54 136 l 156 136 l 76 -92 z"},"n":{"x_min":0,"x_max":534,"ha":534,"o":"m 59 449 l 188 449 l 191 362 q 214 406 250 432 q 286 458 338 458 q 400 458 439 419 q 478 380 468 297 l 442 82 l 507 82 l 499 22 l 472 0 l 330 0 l 362 258 q 370 322 351 348 q 332 375 291 375 q 242 375 215 340 q 188 306 182 257 l 182 258 l 150 0 l 48 0 l 93 366 l 24 366 l 31 425 z"},"h":{"x_min":0,"x_max":516,"ha":516,"o":"m 44 664 l 72 688 l 214 688 l 175 370 q 198 410 233 434 q 268 458 318 458 q 380 458 419 419 q 458 380 448 297 l 422 82 l 486 82 l 479 22 l 452 0 l 310 0 l 342 258 q 350 322 331 348 q 312 375 271 375 q 224 375 198 344 q 171 314 163 270 l 130 0 l 28 0 l 102 606 l 37 606 z"},"z":{"x_min":0,"x_max":449,"ha":449,"o":"m 382 0 l 10 0 l 1 58 l 291 366 l 136 366 l 111 289 l 34 298 l 64 449 l 412 449 l 426 390 l 139 82 l 312 82 l 342 160 l 424 150 z"},"B":{"x_min":0,"x_max":596,"ha":596,"o":"m 389 650 q 473 650 519 612 q 565 575 565 511 q 565 455 531 412 q 497 369 439 359 l 438 355 q 498 345 528 306 q 557 266 557 208 q 557 126 500 63 q 442 0 327 0 l 10 0 l 20 95 l 92 95 l 140 555 l 68 555 l 78 650 z m 329 377 q 390 377 419 406 q 448 436 448 478 q 448 522 422 538 q 396 555 354 555 l 247 555 l 228 377 z m 311 95 q 443 95 443 204 q 443 290 345 290 l 219 290 l 199 95 z"},"K":{"x_min":0,"x_max":638,"ha":638,"o":"m 356 95 l 420 95 l 305 284 l 218 284 l 198 95 l 258 95 l 248 0 l 10 0 l 20 95 l 92 95 l 140 555 l 68 555 l 78 650 l 319 650 l 309 555 l 246 555 l 227 375 l 316 375 l 464 555 l 403 555 l 413 650 l 658 650 l 648 555 l 578 555 l 393 340 l 544 95 l 611 95 l 601 0 l 346 0 z"},"R":{"x_min":0,"x_max":608,"ha":608,"o":"m 20 95 l 92 95 l 140 555 l 68 555 l 78 650 l 354 650 q 461 650 516 604 q 571 558 571 476 q 571 400 532 354 q 492 307 422 285 l 501 95 l 578 95 l 568 0 l 421 0 l 320 257 l 216 257 l 199 95 l 273 95 l 263 0 l 10 0 z m 307 346 q 391 346 424 380 q 456 413 456 466 q 456 515 426 535 q 397 555 326 555 l 247 555 l 225 346 z"},"T":{"x_min":0,"x_max":618,"ha":618,"o":"m 616 438 l 522 430 l 515 555 l 391 555 l 343 95 l 450 95 l 440 0 l 125 0 l 135 95 l 237 95 l 285 555 l 161 555 l 129 430 l 37 438 l 77 650 l 619 650 z"},"P":{"x_min":0,"x_max":571,"ha":571,"o":"m 20 95 l 92 95 l 140 555 l 68 555 l 78 650 l 355 650 q 462 650 515 596 q 568 543 568 459 q 568 344 494 286 q 420 227 319 227 l 213 227 l 199 95 l 300 95 l 290 0 l 10 0 z m 310 321 q 386 321 420 358 q 453 396 453 454 q 453 502 426 528 q 398 555 333 555 l 247 555 l 223 321 z"},"|":{"x_min":0,"x_max":235,"ha":235,"o":"m 210 730 l 125 -80 l 35 -80 l 120 730 z"},"t":{"x_min":0,"x_max":353,"ha":353,"o":"m 26 422 l 55 449 l 94 449 l 107 554 l 140 588 l 214 588 l 197 449 l 338 449 l 330 394 l 301 366 l 187 366 l 160 143 q 151 72 199 72 q 217 72 234 87 q 251 102 265 155 l 338 130 q 319 57 284 24 q 250 -10 188 -10 q 120 -10 84 28 q 47 66 56 134 l 84 366 l 18 366 z"},"M":{"x_min":0,"x_max":862,"ha":862,"o":"m 22 95 l 93 95 l 141 555 l 62 555 l 72 650 l 241 650 l 426 208 l 430 208 l 696 650 l 867 650 l 857 555 l 778 555 l 730 95 l 802 95 l 792 0 l 551 0 l 561 95 l 623 95 l 656 406 l 652 406 l 432 46 l 384 46 l 231 414 l 227 414 l 193 95 l 259 95 l 249 0 l 12 0 z"},"g":{"x_min":0,"x_max":521,"ha":521,"o":"m 381 449 l 531 449 l 524 388 l 497 366 l 457 366 l 414 17 q 402 -80 349 -151 q 296 -222 180 -222 q 116 -222 62 -190 q 8 -158 -6 -84 l 68 -44 q 82 -90 114 -112 q 147 -133 187 -133 q 294 -133 312 18 l 320 88 q 297 48 260 19 q 222 -10 167 -10 q 94 -10 58 44 q 21 98 21 178 q 21 240 43 304 q 65 369 112 414 q 159 458 233 458 q 331 458 361 378 z m 248 375 q 187 375 160 317 q 132 259 132 190 q 132 136 150 104 q 168 72 206 72 q 253 72 288 114 q 324 155 334 199 l 340 252 q 346 308 318 342 q 291 375 248 375 z"},"j":{"x_min":0,"x_max":250,"ha":250,"o":"m 117 542 l 129 660 l 232 660 l 220 542 z m 24 425 l 51 449 l 212 449 l 157 3 q 144 -97 108 -159 q 72 -221 7 -222 q -20 -223 -43 -216 q -66 -208 -85 -197 l -81 -126 q -30 -146 6 -126 q 42 -105 55 3 l 100 366 l 16 366 z"},"i":{"x_min":0,"x_max":267,"ha":267,"o":"m 116 542 l 129 660 l 231 660 l 219 542 z m 34 425 l 61 449 l 207 449 l 163 82 l 226 82 l 219 22 l 192 0 l 50 0 l 95 366 l 26 366 z"},"y":{"x_min":0,"x_max":476,"ha":476,"o":"m 245 123 l 251 123 q 304 190 329 244 q 354 298 354 356 q 354 377 350 400 q 346 424 335 449 l 452 449 q 464 390 452 324 q 441 259 390 188 q 370 160 336 119 q 302 78 266 40 l 241 -131 l 310 -131 l 302 -189 l 275 -213 l 55 -213 l 63 -155 l 90 -131 l 138 -131 l 164 43 l 60 366 l 9 366 l 17 425 l 44 449 l 245 449 l 238 390 l 210 366 l 170 366 z"},"@":{"x_min":0,"x_max":884,"ha":884,"o":"m 632 297 l 614 138 q 614 136 612 126 q 611 116 611 114 q 608 62 653 62 q 706 62 732 128 q 758 194 758 282 q 758 448 678 511 q 598 574 486 574 q 322 574 218 469 q 114 364 114 192 q 114 25 206 -48 q 298 -122 419 -122 q 468 -122 524 -109 q 580 -96 626 -65 l 654 -130 q 603 -162 539 -182 q 475 -202 404 -202 q 244 -202 134 -98 q 25 5 25 183 q 25 314 86 420 q 147 527 250 590 q 354 654 484 654 q 576 654 660 618 q 743 581 796 504 q 849 428 849 308 q 849 240 827 166 q 805 92 756 41 q 708 -10 627 -10 q 572 -10 539 17 q 506 44 504 86 q 483 46 448 18 q 412 -10 358 -10 q 284 -10 246 44 q 209 98 209 181 q 209 240 230 304 q 251 369 296 414 q 342 458 417 458 q 517 458 546 374 q 550 393 555 412 q 560 430 567 449 l 667 449 q 656 414 646 374 q 636 335 632 297 z m 431 375 q 371 375 346 316 q 320 258 320 194 q 320 72 397 72 q 442 72 474 111 q 506 150 516 194 l 516 195 l 525 266 q 525 316 498 346 q 470 375 431 375 z"},".":{"x_min":0,"x_max":218,"ha":218,"o":"m 18 0 l 32 139 l 160 139 l 146 0 z"},"p":{"x_min":0,"x_max":528,"ha":528,"o":"m 189 449 l 190 355 q 211 396 246 427 q 282 458 337 458 q 416 458 456 403 q 496 348 496 268 q 496 206 474 142 q 452 77 405 34 q 358 -10 281 -10 q 190 -10 157 58 l 134 -131 l 225 -131 l 218 -189 l 190 -213 l -39 -213 l -32 -155 l -5 -131 l 31 -131 l 92 366 l 24 366 l 32 425 l 59 449 z m 269 72 q 328 72 356 134 q 384 195 384 254 q 384 307 364 341 q 343 375 301 375 q 248 375 217 330 q 186 284 179 235 l 178 229 l 171 176 q 172 130 198 101 q 225 72 269 72 z"},"X":{"x_min":0,"x_max":631,"ha":631,"o":"m 595 0 l 353 0 l 363 95 l 420 95 l 310 261 l 173 95 l 232 95 l 222 0 l -22 0 l -12 95 l 54 95 l 263 334 l 109 555 l 49 555 l 59 650 l 296 650 l 286 555 l 232 555 l 334 407 l 459 555 l 407 555 l 417 650 l 650 650 l 640 555 l 578 555 l 381 336 l 548 95 l 605 95 z"},"*":{"x_min":0,"x_max":406,"ha":406,"o":"m 399 541 l 283 483 l 386 425 l 340 362 l 250 428 l 244 318 l 170 318 l 188 428 l 83 362 l 50 425 l 165 483 l 62 541 l 108 605 l 200 537 l 205 650 l 279 650 l 260 538 l 366 605 z"},"Y":{"x_min":0,"x_max":611,"ha":611,"o":"m 634 555 l 578 555 l 358 253 l 342 95 l 446 95 l 436 0 l 124 0 l 134 95 l 235 95 l 251 253 l 89 555 l 31 555 l 41 650 l 288 650 l 278 555 l 213 555 l 318 351 l 323 351 l 467 555 l 397 555 l 407 650 l 643 650 z"},"c":{"x_min":0,"x_max":439,"ha":439,"o":"m 246 375 q 190 375 161 324 q 132 274 132 196 q 132 140 151 106 q 170 72 218 72 q 259 72 282 99 q 305 126 320 178 l 403 161 q 390 99 342 44 q 295 -10 202 -10 q 116 -10 68 43 q 21 96 21 191 q 21 254 44 316 q 67 377 116 418 q 166 458 248 458 q 286 458 326 448 q 366 439 401 417 l 406 291 l 320 282 l 313 360 q 295 370 279 372 q 263 375 246 375 z"},"!":{"x_min":0,"x_max":249,"ha":249,"o":"m 226 650 l 156 217 l 79 217 l 101 650 z m 37 0 l 50 127 l 175 127 l 162 0 z"},"/":{"x_min":0,"x_max":385,"ha":385,"o":"m 394 688 l 112 0 l 14 0 l 295 688 z"},"[":{"x_min":0,"x_max":288,"ha":288,"o":"m 19 -235 l 125 772 l 326 772 l 318 698 l 206 698 l 116 -161 l 228 -161 l 220 -235 z"},"6":{"x_min":0,"x_max":527,"ha":527,"o":"m 484 235 q 484 135 423 62 q 362 -10 246 -10 q 135 -10 86 62 q 38 135 38 263 q 38 356 64 448 q 91 539 154 600 q 216 660 325 660 q 382 660 430 639 q 478 618 507 571 l 437 506 q 398 565 317 565 q 176 565 156 321 q 176 356 218 384 q 259 413 324 413 q 412 413 448 360 q 484 306 484 235 z m 372 222 q 372 270 352 296 q 331 322 281 322 q 221 322 190 288 q 160 254 152 213 q 152 154 173 121 q 194 88 252 88 q 316 88 344 127 q 372 166 372 222 z"},"r":{"x_min":0,"x_max":352,"ha":352,"o":"m 69 449 l 191 449 l 195 334 q 211 380 239 419 q 267 458 307 458 q 336 458 358 440 l 341 331 q 315 346 289 346 q 255 346 230 322 q 205 298 195 258 l 171 82 l 260 82 l 252 24 l 225 0 l -5 0 l 3 58 l 30 82 l 68 82 l 102 366 l 35 366 l 42 425 z"},"2":{"x_min":0,"x_max":518,"ha":518,"o":"m 142 341 l 58 350 l 93 490 q 144 512 196 522 q 249 531 287 531 q 387 531 426 488 q 466 445 466 391 q 466 320 415 266 q 364 212 291 171 q 218 130 153 95 l 370 95 l 383 172 l 469 164 l 447 0 l 19 0 l 18 87 q 157 173 252 237 q 347 301 347 369 q 347 404 322 420 q 296 436 256 436 q 238 436 212 432 q 186 428 166 418 z"},"{":{"x_min":0,"x_max":288,"ha":288,"o":"m 113 267 q 168 260 191 235 q 214 210 214 183 q 214 149 186 98 q 157 48 128 -6 q 100 -61 100 -107 q 100 -161 156 -161 l 219 -161 l 211 -234 l 148 -234 q 74 -234 43 -198 q 12 -162 12 -115 q 12 -60 40 -1 q 69 58 98 108 q 126 158 126 188 q 126 222 92 232 q 58 242 36 242 l 17 242 l 23 292 l 41 292 q 64 292 104 304 q 144 315 144 356 q 144 396 117 472 q 90 547 90 618 q 90 682 128 727 q 166 772 253 772 l 316 772 l 309 698 l 246 698 q 176 698 176 621 q 176 580 190 532 q 204 484 218 439 q 233 394 233 364 q 233 333 206 304 q 179 275 113 267 z"},"9":{"x_min":0,"x_max":526,"ha":526,"o":"m 39 285 q 39 385 100 458 q 162 530 277 530 q 388 530 436 458 q 485 385 485 257 q 485 164 458 72 q 432 -19 369 -80 q 306 -140 198 -140 q 141 -140 93 -119 q 45 -98 16 -51 l 86 14 q 125 -45 206 -45 q 347 -45 367 199 q 348 164 306 136 q 264 107 199 107 q 110 107 74 160 q 39 214 39 285 z m 151 298 q 151 250 172 224 q 192 198 242 198 q 302 198 333 232 q 364 266 371 307 q 371 366 350 399 q 329 432 271 432 q 206 432 178 393 q 151 354 151 298 z"}," ":{"x_min":0,"x_max":195,"ha":195,"o":""},"I":{"x_min":0,"x_max":328,"ha":328,"o":"m 20 95 l 92 95 l 140 555 l 68 555 l 78 650 l 328 650 l 318 555 l 246 555 l 198 95 l 270 95 l 260 0 l 10 0 z"},"H":{"x_min":0,"x_max":732,"ha":732,"o":"m 20 95 l 92 95 l 140 555 l 68 555 l 78 650 l 329 650 l 318 555 l 246 555 l 227 377 l 524 377 l 543 555 l 471 555 l 482 650 l 732 650 l 722 555 l 650 555 l 602 95 l 674 95 l 664 0 l 414 0 l 424 95 l 495 95 l 514 283 l 217 283 l 198 95 l 270 95 l 261 0 l 10 0 z"},"4":{"x_min":0,"x_max":547,"ha":547,"o":"m 385 -130 l 276 -130 l 294 39 l 5 39 l 4 132 l 251 521 l 453 521 l 412 132 l 512 132 l 493 39 l 403 39 z m 304 132 l 335 426 l 287 426 l 105 132 z"},"~":{"x_min":0,"x_max":576,"ha":576,"o":"m 378 185 q 336 185 304 202 q 272 219 242 236 q 212 253 175 253 q 156 253 133 242 q 110 230 81 190 l 26 230 q 96 351 189 351 q 227 351 256 334 q 284 317 314 300 q 344 283 386 283 q 414 283 437 298 q 460 312 489 355 l 552 311 q 516 253 473 219 q 430 185 378 185 z"},"D":{"x_min":0,"x_max":678,"ha":678,"o":"m 363 650 q 508 650 581 572 q 654 493 654 362 q 654 205 558 102 q 462 0 301 0 l 10 0 l 20 95 l 93 95 l 141 555 l 68 555 l 78 650 z m 303 95 q 416 95 478 163 q 540 231 540 352 q 540 555 351 555 l 246 555 l 198 95 z"},"^":{"x_min":0,"x_max":455,"ha":455,"o":"m 232 652 l 298 652 l 434 369 l 337 369 l 254 548 l 140 369 l 44 369 z"},"0":{"x_min":0,"x_max":566,"ha":566,"o":"m 32 223 q 32 350 104 440 q 176 529 310 529 q 421 529 475 463 q 529 397 529 286 q 529 146 453 68 q 377 -10 254 -10 q 152 -10 92 48 q 32 105 32 223 z m 150 234 q 150 162 174 125 q 198 88 262 88 q 327 88 370 134 q 414 179 414 287 q 414 360 388 396 q 362 431 298 431 q 150 431 150 234 z"},"F":{"x_min":0,"x_max":544,"ha":544,"o":"m 545 454 l 452 445 l 444 555 l 246 555 l 224 346 l 498 346 l 488 252 l 214 252 l 198 95 l 304 95 l 294 0 l 10 0 l 20 95 l 92 95 l 140 555 l 68 555 l 78 650 l 545 650 z"},"`":{"x_min":0,"x_max":431,"ha":431,"o":"m 400 512 l 204 609 l 254 693 l 425 555 z"},"k":{"x_min":0,"x_max":461,"ha":461,"o":"m 44 664 l 72 688 l 214 688 l 163 267 l 228 267 q 308 348 319 449 l 423 449 q 422 388 386 331 q 349 274 288 233 l 370 82 l 437 82 l 429 22 l 403 0 l 308 0 l 204 195 l 154 195 l 130 0 l 28 0 l 102 606 l 37 606 z"},"u":{"x_min":0,"x_max":535,"ha":535,"o":"m 500 82 l 493 24 l 465 0 l 336 0 l 333 86 q 310 43 274 17 q 238 -9 187 -9 q 126 -9 86 30 q 46 69 57 152 l 83 366 l 18 366 l 26 427 l 52 449 l 195 449 l 163 191 q 155 127 174 100 q 192 73 234 73 q 280 73 306 104 q 333 136 341 181 l 374 449 l 476 449 l 432 82 z"},"]":{"x_min":0,"x_max":287,"ha":287,"o":"m 267 772 l 161 -235 l -40 -235 l -32 -161 l 80 -161 l 170 698 l 58 698 l 66 772 z"},"U":{"x_min":0,"x_max":692,"ha":692,"o":"m 464 650 l 702 650 l 692 555 l 633 555 l 603 268 q 596 199 568 136 q 539 72 480 31 q 421 -10 322 -10 q 180 -10 128 71 q 76 152 87 257 l 118 555 l 59 555 l 69 650 l 313 650 l 303 555 l 225 555 l 194 260 q 186 183 217 136 q 248 88 330 88 q 410 88 452 136 q 495 183 504 268 l 534 555 l 455 555 z"},"o":{"x_min":0,"x_max":482,"ha":482,"o":"m 21 192 q 21 296 80 377 q 138 458 259 458 q 360 458 405 399 q 450 340 450 251 q 450 137 384 64 q 319 -10 209 -10 q 118 -10 70 44 q 21 98 21 192 z m 132 200 q 132 142 150 107 q 168 72 219 72 q 284 72 312 124 q 340 177 340 248 q 340 375 248 375 q 132 375 132 200 z"},"N":{"x_min":0,"x_max":725,"ha":725,"o":"m 24 95 l 94 95 l 142 555 l 62 555 l 72 650 l 228 650 l 516 220 l 519 220 l 554 555 l 462 555 l 472 650 l 736 650 l 726 555 l 654 555 l 596 0 l 534 -1 l 234 450 l 231 450 l 194 95 l 286 95 l 276 0 l 14 0 z"},"+":{"x_min":0,"x_max":401,"ha":401,"o":"m 27 244 l 34 318 l 171 318 l 186 455 l 259 455 l 244 318 l 374 318 l 367 244 l 236 244 l 222 108 l 148 108 l 163 244 z"},"G":{"x_min":0,"x_max":663,"ha":663,"o":"m 637 255 l 598 255 l 572 0 l 488 0 l 485 74 q 454 36 406 13 q 357 -10 293 -10 q 171 -10 102 74 q 32 158 32 288 q 32 388 74 472 q 115 557 194 608 q 274 660 386 660 q 460 660 521 638 q 582 615 612 583 l 615 449 l 526 440 l 516 522 q 462 562 376 562 q 276 562 212 492 q 147 421 147 297 q 147 191 194 140 q 242 88 322 88 q 396 88 437 128 q 478 168 487 229 l 490 255 l 354 255 l 365 350 l 647 350 z"},"q":{"x_min":0,"x_max":507,"ha":507,"o":"m 447 -189 l 419 -213 l 192 -213 l 199 -155 l 227 -131 l 292 -131 l 320 88 q 297 48 259 19 q 221 -10 166 -10 q 92 -10 56 44 q 20 98 20 178 q 20 240 42 304 q 64 369 111 414 q 158 458 232 458 q 333 458 362 374 q 366 393 371 412 q 376 430 383 449 l 483 449 q 458 369 448 297 l 396 -131 l 454 -131 z m 248 375 q 186 375 158 317 q 131 259 131 191 q 131 136 149 104 q 167 72 206 72 q 253 72 288 114 q 324 157 334 203 l 341 258 q 344 312 316 344 q 288 375 248 375 z"},"d":{"x_min":0,"x_max":518,"ha":518,"o":"m 300 664 l 327 688 l 496 688 l 422 82 l 486 82 l 479 22 l 452 0 l 325 0 l 325 97 q 302 54 263 22 q 224 -10 166 -10 q 92 -10 56 44 q 20 98 20 178 q 20 240 42 304 q 64 369 111 414 q 158 458 232 458 q 322 458 356 389 l 383 606 l 293 606 z m 248 375 q 186 375 158 317 q 131 259 131 191 q 131 136 149 104 q 167 72 206 72 q 253 72 288 114 q 324 157 333 203 l 341 268 q 342 318 314 346 q 286 375 248 375 z"},"1":{"x_min":0,"x_max":387,"ha":387,"o":"m 26 95 l 139 95 l 174 426 l 62 426 l 72 521 l 292 521 l 247 95 l 352 95 l 342 0 l 17 0 z"},"5":{"x_min":0,"x_max":508,"ha":508,"o":"m 457 83 q 457 -29 388 -85 q 318 -141 212 -141 q 114 -141 62 -96 q 11 -52 13 24 l 103 52 q 104 14 130 -16 q 156 -46 214 -46 q 280 -46 310 -8 q 339 29 339 77 q 339 144 292 164 q 246 185 182 185 q 160 185 136 184 q 113 182 92 180 l 60 215 l 92 521 l 470 521 l 467 355 l 375 347 l 367 426 l 183 426 l 167 275 q 177 276 188 276 q 198 276 208 276 q 310 276 384 238 q 457 201 457 83 z"}}}
